<?xml version="1.0" encoding="utf-8"?>
<!-- Generator: Adobe Illustrator 16.0.4, SVG Export Plug-In . SVG Version: 6.00 Build 0)  -->
<!DOCTYPE svg PUBLIC "-//W3C//DTD SVG 1.1//EN" "http://www.w3.org/Graphics/SVG/1.1/DTD/svg11.dtd">
<svg version="1.1" id="Layer_1" xmlns="http://www.w3.org/2000/svg" xmlns:xlink="http://www.w3.org/1999/xlink" x="0px" y="0px"
	 width="50px" height="50px" viewBox="-225.5 476.5 50 50" enable-background="new -225.5 476.5 50 50" xml:space="preserve">
<g>
	<g>
		<path fill="#FFFFFF" d="M-183.581,512.703l-16.918,7.307l-16.92-7.307l-2.812,5.39l19.731,8.407l19.729-8.407L-183.581,512.703z
			 M-200.499,514.363c10.452,0,18.929-8.478,18.929-18.935c0-10.454-8.477-18.929-18.929-18.929c-10.455,0-18.93,8.475-18.93,18.929
			C-219.429,505.886-210.954,514.363-200.499,514.363z M-200.5,482.359c7.228,0,13.089,5.859,13.089,13.088
			s-5.861,13.095-13.089,13.095c-7.229,0-13.088-5.866-13.088-13.095S-207.729,482.359-200.5,482.359z"/>
	</g>
</g>
</svg>
